<svg xmlns="http://www.w3.org/2000/svg" xmlns:xlink="http://www.w3.org/1999/xlink" viewBox="0,0,256,256" width="30px" height="30px" fill-rule="nonzero"><g fill="#ffffff" fill-rule="nonzero" stroke="none" stroke-width="1" stroke-linecap="butt" stroke-linejoin="miter" stroke-miterlimit="10" stroke-dasharray="" stroke-dashoffset="0" font-family="none" font-weight="none" font-size="none" text-anchor="none" style="mix-blend-mode: normal"><g transform="scale(8.53333,8.53333)"><path d="M14.217,19.707l-1.112,2.547c-0.427,0.979 -1.782,0.979 -2.21,0l-1.112,-2.547c-0.99,-2.267 -2.771,-4.071 -4.993,-5.057l-3.06,-1.358c-0.973,-0.432 -0.973,-1.848 0,-2.28l2.965,-1.316c2.279,-1.012 4.092,-2.883 5.065,-5.226l1.126,-2.714c0.418,-1.007 1.81,-1.007 2.228,0l1.126,2.714c0.973,2.344 2.786,4.215 5.065,5.226l2.965,1.316c0.973,0.432 0.973,1.848 0,2.28l-3.061,1.359c-2.221,0.986 -4.003,2.79 -4.992,5.056z"></path><path d="M24.481,27.796l-0.339,0.777c-0.248,0.569 -1.036,0.569 -1.284,0l-0.339,-0.777c-0.604,-1.385 -1.693,-2.488 -3.051,-3.092l-1.044,-0.464c-0.565,-0.251 -0.565,-1.072 0,-1.323l0.986,-0.438c1.393,-0.619 2.501,-1.763 3.095,-3.195l0.348,-0.84c0.243,-0.585 1.052,-0.585 1.294,0l0.348,0.84c0.594,1.432 1.702,2.576 3.095,3.195l0.986,0.438c0.565,0.251 0.565,1.072 0,1.323l-1.044,0.464c-1.358,0.604 -2.447,1.707 -3.051,3.092z"></path></g></g></svg>